<?xml version="1.0" encoding="utf-8"?>
<!-- Generator: Adobe Illustrator 18.1.1, SVG Export Plug-In . SVG Version: 6.00 Build 0)  -->
<!DOCTYPE svg PUBLIC "-//W3C//DTD SVG 1.1//EN" "http://www.w3.org/Graphics/SVG/1.1/DTD/svg11.dtd">
<svg version="1.1" id="Layer_1" xmlns="http://www.w3.org/2000/svg" xmlns:xlink="http://www.w3.org/1999/xlink" x="0px" y="0px"
	 viewBox="0 0 612 792" enable-background="new 0 0 612 792" xml:space="preserve">
<g id="Pk3Ccg.tif">
	<g>
		<path fill="#343738" d="M90.6,347.9c-1.4,1.4-2.9,2.5-4.3,4c-11.2-6.1-22-12.3-33.2-18.1c-1.4,1.8-2.5,3.6-4,5.4
			c30,31.8,121.7,66.8,105.4,86.3c-11.9,7.6-31.1,3.2-45.5,4.7c14.4,13.7,31.1,10.1,48,6.1c35.7-8.7,69.3,4.3,79.8,37.6
			c8.7,27.8,30,27.4,52.4,33.6c-0.7-17.7,0-37.2-8.7-50.5c-9.7-14.8-26.7-25.6-42.6-35c-13.4-7.6-30-10.1-26.7-35
			c-10.5,30-24.9,15.5-38.3,8.7c-18.8-9.4-24.9-26.4-27.1-45.9c-0.7-7.6-2.9-14.8-4.7-22c-1.8,0.4-3.2,0.7-5.1,0.7
			c-0.7,13.4-1.4,26.4-2.2,39.7c-2.2,0-4,0-6.1,0c-23.1-41.9-45.9-83.8,6.9-127.1c-1.8-0.7-3.6-1.1-5.8-1.8
			c-7.2,2.5-14.4,5.4-24.9,9.4c12.3-45.9,27.4-85.2,78-101.1c-8.7-4.3-21.7-6.5-21.7-10.8s32.9-23.8,48-34.7c-1.1-2.2-2.2-4-3.2-6.1
			c-24.9,12.6-71.5,38.6-76.2,39s-2.9-14.4-4.3-21.7c-1.1,0-1.8,0-2.9,0C107.2,161,92.7,209,76.5,263.1c-9.7-16.2-17-28.5-24.2-41.2
			c-1.8,0.7-3.6,1.4-5.1,2.2C62.1,265.3,76.5,306.4,90.6,347.9z M326.7,508.6c22.7-5.8,42.2-10.1,49.8-37.2
			c5.8-20.9,25.3-34.3,47.7-36.8c14.1-1.4,28.5,1.8,42.6,4c16.6,2.9,27.8,0,33.6-8.7c-12.3-1.4-25.6-3.2-41.5-5.1
			c-12.3-13.4,75.8-53.1,104-85.9c-1.4-1.4-2.5-3.2-4-4.7c-10.8,5.8-21.3,11.6-32.1,17.3c-1.4-1.1-2.9-2.2-4.7-3.2
			c14.1-41.2,27.8-82.7,41.9-123.8c-1.8-0.7-3.6-1.1-5.4-1.8c-6.9,11.9-18.8,39-22.4,39c-3.6,0-10.5-39.7-17.7-55.2
			c-10.5-21.3-17-43.3-18.8-66.8c-0.7-9.4-5.8-18.4-8.7-27.8c-1.1,0.4-2.5,0.7-3.6,1.1c-1.1,7.2-0.4,19.9-3.6,22
			c-3.2,2.2-51.3-26.4-76.2-39c-1.1,1.8-2.2,4-3.2,5.8c15.2,11.2,46.9,32.5,47.7,35.4c0.7,2.9-13.7,4.3-14.4,6.9
			c-0.7,2.5,33.6,27.1,45.5,43.7c11.9,17,18.1,37.9,26.4,57c-1.4,0.7-3.2,1.4-4.7,2.2c-6.9-2.5-14.1-5.1-20.9-7.6
			c9.4,22.7,34.3,35.4,24.6,65.4c-6.9,20.6-4.3,56.7-65,95.7c-4,2.5-1.4-24.9-5.8-22.4c-3.2,1.8-13,33.6-15.9,35.4
			c-63.9,35.7-65,25.3-71.9,29.6C318.8,464.6,318.4,472.9,326.7,508.6z"/>
	</g>
</g>
<g enable-background="new    ">
	<path fill="#343738" d="M105.9,724.9h-12l-3.4-11c-6.2,9.1-12.9,13.4-20.6,13.4c-9.3,0-18.2-5.5-22.7-14.1
		c-3.6-6.7-4.5-13.2-4.5-27.5v-84.5c0-25.4,10.5-38.3,31.6-38.3c21.3,0,32.1,13.9,32.1,41.7c0,3.4,0,6.5-0.5,12.7H83.6
		c0.5-5.3,0.5-7.4,0.5-11c0-17.7-2.2-22.5-10.1-22.5c-7.2,0-9.1,3.6-9.1,17.5v84.5c0,11.7,0.2,13.4,1.4,16c1.7,3.4,4.3,5,7.7,5
		c3.6,0,6.7-2.2,8.1-5.7c1.2-2.6,1.4-5,1.4-15.3v-23h-9.8v-18.9h32.1v81H105.9z"/>
	<path fill="#343738" d="M144.4,724.9h-21.5l21.8-159.7h28.7l20.8,159.7h-21.8l-4.1-35.9h-20.1L144.4,724.9z M158.3,594.1l-7.7,74
		H166L158.3,594.1z"/>
	<path fill="#343738" d="M281.1,724.9h-22.3l-26.3-83.8v83.8h-22.3V565.2h19.2l29.4,94.1v-94.1h22.3V724.9z"/>
	<path fill="#343738" d="M316.6,586h-20.8v-20.8h64.9V586h-21.8v138.9h-22.3L316.6,586L316.6,586z"/>
	<path fill="#343738" d="M375.2,565.2h22.3V704h31.6v20.8h-53.9V565.2z"/>
	<path fill="#343738" d="M496.3,565.2V586h-31.6v44.8h22v20.8h-22V704h33.5v20.8h-55.8V565.2H496.3z"/>
	<path fill="#343738" d="M534.6,565.2c18,0,26.1,2.9,32.6,11.3c5.7,7.4,8.4,18.2,8.4,33.3c0,19.9-2.2,27.1-11.3,38.8l15.6,76.4H556
		l-13-68.8c-3.8,0.7-4.5,0.7-7.9,1V725h-22.3V565.2H534.6z M538.2,634.6c7.2,0,11.3-1.7,13.4-5.7c1.7-3.1,2.2-6.9,2.2-21.5
		c0-17.2-3.1-21.3-15.6-21.3h-3.1v48.6L538.2,634.6L538.2,634.6z"/>
</g>
</svg>
