<?xml version="1.0" encoding="utf-8"?>
<!-- Generator: Adobe Illustrator 18.1.1, SVG Export Plug-In . SVG Version: 6.00 Build 0)  -->
<!DOCTYPE svg PUBLIC "-//W3C//DTD SVG 1.1//EN" "http://www.w3.org/Graphics/SVG/1.1/DTD/svg11.dtd">
<svg version="1.1" id="Layer_1" xmlns="http://www.w3.org/2000/svg" xmlns:xlink="http://www.w3.org/1999/xlink" x="0px" y="0px"
	 viewBox="0 0 1062.3 1251.1" enable-background="new 0 0 1062.3 1251.1" xml:space="preserve">
<g id="bHUi0B.tif">
	<g>
		<path fill="#1A1A1A" d="M703.3,19.2c12,3.7,15.9,12.8,16.3,24.3c0.5,16.4-3.3,32-7.9,47.5c-11.8,39.7-28.8,77.4-46,114.9
			c-11.4,24.9-24.9,48.8-34.9,74.3c-9.6,24.3-15.7,49.5-14.5,75.8c2.4,49.5,26,86.3,68.2,111.5c7,4.2,15.7,3.9,23.6,5.6
			c11.7,2.6,23.4,4.8,35.1,7.1c0.1,1.1-0.7,1.5-1.5,1.9c-5.5,1.3-10.9-0.4-16.3-0.8c-6.3-0.4-12.6-1-18.7-2.6
			c-1.9-0.1-3.6-1.2-5.5-1c-0.7,0,0.1,0.9-0.1,0.3c-0.1-0.2,0.1-0.3,0.4-0.3c1.2,0,2.2,0.4,3.3,0.8c18.9,4.4,35.8,12.8,49.9,26.1
			c18.6,17.4,20.6,39.2,6.8,61.6c-6,9.8-14.3,17.5-22.4,25.4c-5.1,5-10.9,9.3-16.7,13.5c-5.8,4.2-11.6,8.3-17.1,11.2
			c14.4-3.4,29.7-7,44.9-10.9c17.8-4.6,35.2-10.1,51.5-18.8c6.9-3.7,13.3-8.3,18.7-14c13.6-14.4,11.6-36.5,3.3-50.3
			c-7.3-12.1-17.9-20.5-30.5-26.5c-5-2.4-10.1-4.3-15.3-6.1c-1.4-0.5-2.9-0.8-3.8-2.2c-0.2-0.5-0.1-1,0.2-1.4
			c16.1,2.6,32.1,5.2,48.2,7.8c29.7,4.7,59.6,7.9,89.7,9.5c25.5,1.4,51.2,2.4,75.9,10c17.2,5.2,32.2,13.7,40.4,30.7
			c6.8,14.1,8.4,29.1,5.3,44.3c-3.4,16.4-14.9,26.6-29.2,34c-14.9,7.7-31,11.7-47.4,14.4c-21.8,3.7-43.8,5.8-65.9,6.5
			c0.6-2.7,3-2.2,4.8-2.5c9.8-1.8,19.7-2.2,26.3-2c-11.8-0.5-26.8,0.7-41.9-0.8c-9.8-1-19.6-0.6-29.4-1c-17.3-0.7-34.6-1.5-51.8-2.4
			c-15.4-0.8-30.9-1.9-46.3-3.5c-9.7-1-19.5-1.6-29.3-0.3c-10.2,1.3-17.4,7.1-23.7,14.5c-3.1,3.7-6.1,7.5-9.1,11.3
			c-4,5-5.6,10.9-6.1,17.2c-0.6,7.7,0.8,15.2,2.8,22.7c0.8,3.2,2.2,3,4.4,1.6c1,0.6,0.8,1.4,0.3,2.2c-4.6,7.7-4.6,16-4.2,24.6
			c1.1,23.6-2.1,46.8-5.4,70.1c-3,21.3-5.8,42.6-0.5,64c2.2,8.9,5.6,17.3,10.1,25.3c30.5,54.2,65.2,105.5,107.3,151.6
			c27.4,30.1,57.4,57.5,87.7,84.6c28.4,25.4,57.6,50,84.5,77.1c5.6,5.7,10.7,11.8,14.4,19.1c5.9,11.7,1.7,19.3-11.5,20.7
			c-1.5,0.2-3.4-0.8-4.5,1c-0.7,0-1.3,0-2,0c-2.3-0.8-4.7-0.8-7,0c-1,0-2,0-3,0c-20.2-1.1-39.8-5.9-59.1-11.3
			c-33.7-9.5-66.7-21.2-99.2-34c-37.2-14.7-73.8-30.7-109.9-47.9c-70.9-33.6-139.5-71.2-204.2-115.6c-35.1-24.1-68.3-50.5-97.3-81.8
			c-14.3-15.5-27.1-32.1-35.2-51.8c-5.9-14.2-9.2-29.2-12.8-44.1c-4.5-18.3-8.2-36.7-12-55.2c-0.7-3.2-2.2-6.4-0.5-9.8
			c2.2,0.6,2.2,0.6,3,4.6c-8.3-44.5-7.6-91.4-2.5-121.7c-11,10.6-24.7,13.2-39.2,11.7c-21.1-2.2-40.9-9.1-58.9-19.3
			c-0.9-0.7-1.1,0.2-0.8-0.4c0-0.1,0.2,0,0.4,0.2c1,1.1,3.4,1.4,1.9,3.7c-1.7,0.8-3.3,0.2-4.7-0.7c-28.3-18.4-60.4-27.6-91.9-38.2
			c-2.3-0.8-4.9-1.2-6.8-3c-0.5-0.8-0.2-1.4,0.4-1.9c1.1-0.5,2-0.1,3,0.1c-1.1-0.3-2.2-0.6-3.4-0.8c-7-2.4-13.8-5.4-20.6-8.3
			c-1.5-0.6-3.5-1.2-3.5-3c0-1.9,2-2.4,3.4-3.1c2-1.1,4.1-2.1,6.2-3.1c1.2-0.5,2.4-0.8,3.7-1.2c0.8-0.2,1.6-0.3,2.4-0.4
			c10-0.1,20-0.5,30,0.7c0.7,0,0-1.1,0.2-0.4c-7.3,0.5-14.3-1.6-21.4-2.9c-4-1.5-8.3-1.4-12.3-3c-2.9-1.4-6.1-2.1-9.1-3.3
			c-2.3-1.2-4.9-1.9-7.3-3c-2.4-1.4-5.4-2-7.4-4.1c-1.4-1.4-2.5-3-3.4-4.7c-0.7-1.4-1.2-2.8-1.3-4.4c-0.1-1.8-0.2-3.7,0.5-5.4
			c1.2-2.2,3.5-2.3,5.6-2.8c21.5-4.7,41.4-13.5,60.7-23.9c8.8-4.8,17.6-9.5,26.3-14.4c11.9-6.8,24.2-12.7,37-17.4
			c12.5-4.6,25.4-8,38.7-9.1c11.2-2,22.2-1.1,33.2,1c10.5,3,20.6,6.8,28.5,14.6c1.2,1.2,2.7,1.2,4,1.8c2,2.2,2.7,5,3.7,7.6
			c1.7,6.4,3,12.8,2,19.5c-1.9,12-5.7,23.2-13,33c-0.8,1.1-1.4,2.2-2.5,3.1c-0.4,0.4-0.9,0.6-0.9,0.6c12.8-6.5,25.4-14.2,36.1-24.9
			c11.6-11.7,16.1-26,16.8-41.9c-0.3-5.7,0.5-11.4-0.7-17c-1.4-6.6-2.4-13.3-6.4-19.1c-3.2-4.9-6.5-9.8-11.6-13.1
			c-4.8-3.5-9.6-6.9-16.1-5.6c-0.5,0-1.1,0-1.6,0c-2.2-0.2-4.6,0.5-6.4-1.5c0.3-1.6,1.7-2,3-2.2c10.4-1.6,20.8-3.9,31.4-4.1
			c10.3-1,20.6-2.3,31.1-2c14.5-2,29.1-0.9,43.7-1c12.6-0.5,25.2,0.2,37.8,1c9.2-0.7,18.3,1.3,27.5,1.1c0.9,0.1,1.8,0.1,2.7,0.4
			c2.8,1,5.7,0.7,8.6,0.6c14.7,0.8,29.4,1.9,44.1,3.1c14.8,1.3,29.7,2.3,44.5,4.2c2.2,0.7,4.4,1,6.7,0.8c0.8,0,1.7,0,2.5,0.1
			c18.2,2,36.4,3.6,54.6,5.5c1.3,0.1,3.2,0.7,3.5-0.9c0.4-1.9-1.8-2.1-3.1-2.4c-8-1.8-15.8-4-23.8-5.7c-9.6-2.1-19-4.9-28.7-6.7
			c-13.4-2.6-26.6-5.8-40-8.5c-21.2-4.2-42.4-8.5-63.8-11.9c-10.1-2-20.3-3.1-30.4-4.7c-12-1.8-24-2.9-36-4
			c-14-1.4-28.1-1.9-42.1-1.8c-10.5,1-21.1,1.5-31.6,3.3c-12.4,2.7-24.6,5.9-35.7,12.4c-10.2,6.1-18.8,13.7-23.6,25
			c-0.3,0.6-0.8,1-1.5,1.2c-1.7-0.1-3.1-0.5-3.8-2.2c4.9-19.6,1.2-39-1.2-58.4c-2-16.4-6.6-32.4-7.7-48.8
			c-1.2-19.2,0.5-38.2,8.6-56.1c9.3-20.6,22.5-38.4,37.6-55c31.3-34.6,68.3-62.4,106.4-88.7c36.3-25.1,74.1-48,112.6-69.6
			c34.7-19.5,69.4-38.9,105-56.7c5.4-2.7,11-4.8,16.6-7c4.7-1.8,9.7-1.8,14.6-2.7c0.3,0,0.7,0,1,0c3,0.8,6,0.8,9,0
			C702.6,19.2,702.9,19.2,703.3,19.2z"/>
		<path fill="#454242" d="M702.3,19.2c-3,1.6-6,1.6-9,0C696.3,19.2,699.3,19.2,702.3,19.2z"/>
		<path fill="#959292" d="M961.3,1238.2c2.3-1.7,4.7-1.6,7,0C965.9,1238.2,963.6,1238.2,961.3,1238.2z"/>
		<path fill="#0B0B0B" d="M692.3,698.2c-1.8,1.2-1.6,3.6-3.2,5.6c-3.6-7.4-5-15-5.8-22.8c-1.2-12.3,3-22.7,11.3-31.8
			c5.1-5.5,9.2-12,15.9-15.6c9.6-5.2,20.1-5.6,30.9-4.8c9.4,0.7,18.8,1.7,28.2,2.2c20,1.1,40,2.7,60.1,3.3c15.6,0.5,31.2,1,46.7,2
			c16.9,1.2,33.9-0.7,50.7,2.5c-8.3-0.1-16.5,1.2-24.7,2.2c-3.7,0.5-7.5,0.5-11.1,1.9c-6.3,0.7-12.6,1.4-18.9,2.1
			c-18,1.8-35.9,3.9-53.8,6.4c-31.3,4.3-62.5,9.5-92,21.7c-12.7,5.3-24.5,12.1-32.7,23.7C693.4,697.6,692.9,697.9,692.3,698.2z"/>
		<path fill="#484645" d="M692.3,698.2c9.3-14.1,23.1-22,38.4-28c22-8.6,45-13.4,68.3-17c16.5-2.6,33-4.9,49.6-6.7
			c7.9-0.8,15.8-2.1,23.8-1.2c-12.3,2.8-24.8,4.3-37.3,5.9c-34.4,4.4-68.8,9.1-101.7,21c-6.1,2.2-12,4.8-17.7,7.8
			c-9.4,5-17.4,11.5-23.4,20.4C692.3,699.6,692.3,698.9,692.3,698.2z"/>
		<path fill="#242424" d="M742,481.4c0.4-0.3,0.8-0.7,1.2-1c2.6,0.4,5.2,0.7,7.9,1.1c0.2,1.1-0.7,1.4-1.5,1.8
			C746.9,483.4,743.9,484.8,742,481.4z"/>
		<path fill="#575554" d="M763.2,484.3c2,0.4,4.3-1,6,1.1c0.3,0.5,0.2,0.8-0.2,1.2c-2.1,0.1-4.3,0.3-5.9-1.6
			C763.2,484.7,763.2,484.5,763.2,484.3z"/>
		<path fill="#2F2E2E" d="M769.3,486c0.1-0.2,0-0.5-0.1-0.7c1.7-0.1,3.5-0.5,5.1,0.7c0,0.4,0,0.7,0,1.1
			C772.2,488.5,770.7,487.7,769.3,486z"/>
		<path fill="#848282" d="M750.2,482.4c0.3-0.3,0.6-0.6,0.9-0.9c0.9-0.3,1.7-0.2,2.2,0.7c0.4,0.5,0.4,1-0.1,1.4
			C751.8,484,750.6,484.4,750.2,482.4z"/>
		<path fill="#535150" d="M753.3,483.1c0-0.3,0-0.6,0-1c1.7,0.3,3.6-0.5,5,1.1c-0.2,0.2-0.4,0.4-0.6,0.5
			C756.1,484.4,754.6,484.6,753.3,483.1z"/>
		<path fill="#656262" d="M758.2,483.3c1.7,0.4,3.7-1,5,1c0,0,0.1-0.1,0.1-0.1C761.3,485.4,759.4,486.3,758.2,483.3L758.2,483.3z"/>
		<path fill="#F8F9FA" d="M758.3,483.2c1.4,1.9,3.3,0.9,5,1c1.7,1.7,4.1,1,6,1.8c1.7,0.4,3.3,0.7,5,1.1c10.9,3.7,21.6,7.6,31.1,14.2
			c14.5,10,24.2,23.1,26,41.1c1.5,14.7-4.1,26.3-15,35.7c-13.6,11.6-29.9,17.6-46.6,23c-21.8,7-44.3,11.6-66.5,17
			c-0.8,0.2-1.6,0.1-3.3,0.2c18.8-11.2,35.7-23.5,50-39.1c4.5-4.9,8.5-10.2,11.9-16c12.6-21.8,8.9-43.3-10.4-59.8
			c-13.7-11.8-29.8-19.1-47-24.2c-0.2-0.9,0-1.4,1-1c12.2,1.1,24.4,2.2,36.6,3.3c2.6,1.3,5.4,0.7,8.1,1c0.9,0.9,2,0.9,3.2,0.8
			C755,483.1,756.6,483.2,758.3,483.2z"/>
		<path fill="#2D2C2C" d="M328.1,787.5c-3.4-11.7-5.9-23.7-10.1-35.3c-9.7-26.5-27.8-46.1-50.2-62.3c-12-8.7-24.4-16.6-36.8-24.6
			c-0.5-3.6-5-3.5-6.5-7.1c8.4,3.9,16,7.8,23.9,11.1c16,6.7,32.6,11.5,50.1,10.9c12.1-0.4,23.1-4,31.9-15.4
			c-7.4,44.6-5.1,87.6,2.2,131.6c-2.6-3.4-2.2-6.6-3.6-9.1c0-0.1-0.3,0-0.5,0C328.4,787.2,328.3,787.4,328.1,787.5z"/>
		<path fill="#1C1F30" d="M256.3,505.2c-14.8,1.4-28.9,5.3-42.6,10.9c-9.5,3.9-19,7.9-27.8,13.3c-1.4,0.9-3,1.3-4.6,1.9
			c-26,10.1-52.2,19.6-78.3,29.5c-3.2,1.2-6.4,4-10.2,1.1c-1.1-4.1,2.4-6.5,3.7-9.7c2.9-3.3,4.2-8,9-9.5c6.1-0.6,11.4-3.4,17-5.5
			c47.6-17.9,95.2-35.9,142.8-53.7c4.5-1.7,8.9-3.6,13.4-5.5c5.9,1.5,10.6,5.1,15.1,8.9c0.6,0.8,1.1,1.7,0.6,2.8
			c-2,2.4-5,3.1-7.8,4.1C276.4,497.5,266.3,501.4,256.3,505.2z"/>
		<path fill="#11152B" d="M605.3,465.2c-0.7,0-1.3,0-2,0c-1.8-1.3-4.2,0.3-6-1c-14.5-1.3-29-2.6-43.4-3.9c-9.4-0.8-18.8-1.8-28.2-2
			c-6.2-0.1-12.2-1.5-18.3-1.2c-2.5-1.4-5.5,0.3-8-1c-0.7,0-1.3,0-2,0c-1-1.2-0.7-2.5-0.4-3.7c1.3-5.6,2.6-11.2,4.2-16.7
			c0.5-1.6,0.7-3.7,3.2-3.6c9.5,0.4,18.6,2.7,27.8,4.5c22.4,4.3,44.7,9,67,13.5c3.1,0.6,5.9,2.4,9.2,2
			C610.3,457.2,609.3,461.6,605.3,465.2z"/>
		<path fill="#0F111C" d="M431.3,454.2c-14.7,0.3-29.4-0.7-44,1c-0.9-1-0.7-2.2-0.4-3.3c2.5-9.5,4.8-19,7.2-28.5
			c0.2-0.8,0.7-1.5,1.2-2.2c12.7-0.5,25.5,0.6,38.2,1c1.6,0.1,3.2,0.6,4.8,1c0.7,0.8,1.2,1.7,0.9,2.8
			C437.1,435.6,435.3,445.2,431.3,454.2z"/>
		<path fill="#060708" d="M303.3,464.3c6.6-17.1,20.5-26.2,36.5-32.7c7.5-3,15.3-5.4,23.4-6.3c2.6,0.1,2.3,2.2,2.1,3.6
			c-1.5,9-3.7,17.8-7.1,26.2c-0.4,0.9-1.3,1.5-2,2.2c-11.5,0.8-22.8,2.2-34,5c-1.1,1.4-2.8,1.4-4.3,2c-3.9,0.5-7.6,1.6-11.5,2.2
			C305,466.7,302.5,467.6,303.3,464.3z"/>
		<path fill="#2F2F2E" d="M366.2,519.2c-0.8,20.4-9.3,36.8-25.5,49.4c-9.5,7.4-19.6,13.4-30.7,18.2c7.5-9.4,13-19.7,15.8-31.5
			c0.5-2-0.5-4.4,1.4-6.1c12-8.2,23.2-17.6,35-26.1C363.8,522,363.7,519.3,366.2,519.2z"/>
		<path fill="#111324" d="M431.3,454.2c0.9-9.2,4.7-17.7,6.4-26.7c0.3-1.4,0.4-2.9,0.6-4.3c12.1,0.8,24.1,1.9,36,4
			c0.4,0.5,0.8,1.2,0.6,1.8c-2,8.7-4.4,17.3-5.6,26.2C456.6,454.4,443.9,454,431.3,454.2z"/>
		<path fill="#0C0E13" d="M356.3,457.2c3.2-8.5,5.3-17.2,7.5-26c0.5-2.1,1.2-4.1-0.5-6c5-2.5,10.5-2.1,15.8-2.7
			c5.3-0.7,10.8-0.9,16.2-1.3c-1.1,10.7-4.7,20.8-7.2,31.2c-0.2,1-0.5,1.9-0.8,2.8C376.9,455,366.6,456.4,356.3,457.2z"/>
		<path fill="#4A4A4A" d="M303.3,464.3c1,2.9,3,0.8,4.3,0.6c3.5-0.7,6.9-1.9,10.5-1.6c3.6-1.2,7.4,0.3,11-0.9c0.3,0,0.7,0,1,0
			c1.3,2.4-0.5,3.8-2,5c-9.1,7.2-18.5,14.1-27.7,21.2c-3.1,2.4-5.1,0.7-7.3-1.2c-4.7-3-9.4-6-14-9c-6.3-2-11.2-6.7-17.5-8.8
			c-1.5-0.6-3-1.1-3.9-2.6c-0.7-2,1.6-1.7,2.2-2.7c2.3-1.1,4.8-0.9,7.2-0.7c8.6,0.6,17.3,0.6,25.9,0c2.3-0.5,4.9,0.6,7-1.2
			C301.3,462.9,302.3,463.6,303.3,464.3z"/>
		<path fill="#343434" d="M366.2,519.2c-2.1,6.2-8.3,8.1-12.6,11.9c-6.8,6-14.3,11.2-21.6,16.6c-1.3,0.9-2.7,2.6-4.8,1.6
			c0.7-7.1-1-14-2-21c11.5-9.9,23.9-18.7,36-27.9c1.2-0.9,2.7-1.4,4.1-0.1C367.4,506.5,365.8,512.9,366.2,519.2z"/>
		<path fill="#3B3B3B" d="M365.3,500.2c-5.2,0.6-8.1,4.8-11.8,7.5c-7.9,5.7-15.3,11.9-23.1,17.7c-1.5,1.2-3,2.7-5.1,2.8
			c-1-2.3-2-4.7-3-7c-3.1-2.2-5-5.2-5.3-9.1c3-3.6,7-6,10.6-8.8c8.6-6.6,17.3-13.3,26-19.8c1.4-1.1,2.8-2.4,4.8-2.4
			c3.7,3.7,4.6,8.6,5.9,13.3C364.7,496.3,364.9,498.3,365.3,500.2z"/>
		<path fill="#414141" d="M358.3,481.2c-12.7,9.8-25.3,19.6-38,29.4c-0.9,0.7-2,1.1-3,1.7c-5.1-3.2-8.6-7.8-11.3-13
			c4.7-4.8,10.5-8.1,15.6-12.3c7.2-5.9,14.9-11.1,22.1-17c1.1-0.9,2.3-1.3,3.6-1.6C352.1,471.6,355.6,476,358.3,481.2z"/>
		<path fill="#111427" d="M469.3,455.2c-1.8-8.2,2.2-15.6,3.7-23.3c0.3-1.6,0.9-3.1,1.3-4.7c10,1.6,20.2,2.1,30,5
			c-3.3,4.4-3,10-4.8,14.9c-1.1,2.9-1.5,6.1-2.2,9.1C487.9,455.9,478.6,455.6,469.3,455.2z"/>
		<path fill="#474747" d="M347.2,468.3c-13.3,10.8-26.6,21.5-41,30.9c-0.4,0.3-0.8,0.4-1.3,0.3c-3.7-3.2-7.7-6.2-10.7-10.3
			c-0.4-0.7-0.7-1.3-1.1-2c3.4,2.2,6.1,0.9,9-1.4c7.7-6.1,15.7-11.9,23.5-17.9c1.9-1.5,4.2-2.8,4.5-5.6
			C337.2,460.6,342.1,464.7,347.2,468.3z"/>
		<path fill="#D8B136" d="M120.5,620.3c-25.8-4.2-51.6-8.4-77.4-12.6c-4.4-0.7-8.7-1.5-13.1-2.3c1.5-3.9,4.9-2.3,7.6-2.6
			c23.2-0.2,46.4,0.2,69.7,0.1c2.4,0,5-0.6,7.1,1.4c-3.1,1.8-6.2,3.6-10,5.8c8.5,3.6,16.7,7,24.8,10.3c0.4,0.5,0.4,0.9-0.1,1.2
			c-1.5,0.5-3,0-4.5,0.1C123.4,620.6,121.8,621,120.5,620.3z"/>
		<path fill="#1F212C" d="M93.2,561.1c1.7,2.2,3.5,0.5,4.9-0.1c23.1-8.6,46.2-17.3,69.3-25.9c4.5-1.7,8.8-3.8,13.8-3.9
			c-25.8,15.6-52.4,29.7-81.7,37.7c-3.3,0.9-6.9,0.8-10.1,2.3c-1.8-2.6-0.1-4.9,0.6-7.2C90.8,562.8,91.2,561.1,93.2,561.1z"/>
		<path fill="#161827" d="M605.3,465.2c2.2-4.1,3.2-8.4,3-13c14.5,3.4,29,6.9,43.5,10.3c3.9,0.9,7.7,1.9,11.6,2.7
			c2.3,0.5,3,1.8,2.9,3.9c-0.2,2.6-2.2,2.2-3.7,2.1c-11.3-1.2-22.7-2.5-34-3.7C620.7,466.7,613,466,605.3,465.2z"/>
		<path fill="#F0E87A" d="M37.3,604.1c-2.4,0.6-5.2-0.8-7.3,1.2c-2.1-0.1-4.2-0.1-3.8-3.2c2.3-2.4,4.6-4.8,6.9-7.2
			c16.2-6.3,31.9-13.9,47.9-20.6c0.6-0.3,1.2-0.6,1.8-0.9c4.8-2.1,5.5-1.6,6.1,3.6c0.4,1.4,0.8,2.7,1.2,4.1
			C72.5,588.7,55,596.7,37.3,604.1z"/>
		<path fill="#F2EA83" d="M37.3,604.1c0.6-1.2,1.5-2.2,2.8-2.7c15.5-6.6,30.9-13.2,46.4-19.9c1.2-0.5,2.4-1.2,3.7-0.3
			c1.1,1.2,2.1,2.4,3.2,3.6c0,4.1-3.5,4.8-6.2,6.1c-8.2,3.8-16.6,7.3-25,11c3.7,0.2,7.4,0,11,0c3.8,0,7.5-0.3,11.3-0.1
			c5.6,0.1,11.2-0.3,16.9,0c3.6,0.2,7.1-0.3,10.7,0c1.9,0.1,3.9,0,5.4,1.7c-1,0.3-2.1,0.6-3.1,0.8C88.7,604.2,63,604.2,37.3,604.1z"
			/>
		<path fill="#EFE76F" d="M89,577.2c-0.8-3.9-2.6-4-6.1-2.4c-15.4,7-30.9,13.6-46.4,20.3c-1.1,0.5-2.3,1.7-3.4-0.1
			c5.2-5.9,11.1-10.9,17.1-15.9c10.8-4,21-9.2,31.7-13.5c2.9-1.2,5.8-3.9,9.3-1.5c-0.6,2.3-1.2,4.7-1.7,7
			C89.3,573.2,89.2,575.2,89,577.2z"/>
		<path fill="#20222B" d="M294.3,489.2c4.3,2.6,8,5.9,11,10c-3.8,4.1-9.4,4.6-14,7c-7.7-0.8-15.3-2.2-23.2-2.1
			c-4,0.1-7.9,0.9-11.8,1.1c6.4-4.8,14.3-6.6,21.5-9.7C283.2,493.3,288.8,491.3,294.3,489.2z"/>
		<path fill="#F6F6F6" d="M157.1,561.9c-1.2,1.2-0.4,2.9-1.1,4.2c-2.7-0.2-2.7-2.1-2.8-4.1c-0.1-8.6,6.8-17.9,15.2-20
			c7.1-1.8,14.2-1.6,21,1.2c5.9,2.4,8,6.9,6,11.8c-1.3-0.1-2-1.1-2.8-1.9c-10-10.4-30.3-6.3-34.2,7.3
			C158.2,561.1,157.7,561.6,157.1,561.9z"/>
		<path fill="#141414" d="M157.1,561.9c1.4-8.8,7.4-13.6,15.3-15.5c9.2-2.2,17.3,0.4,22.9,8.5c2.1,1.6,1.4,4.4,2.8,6.3
			c1.9,1,2.4,2.8,2.2,4.7c-0.9,8.4-4.3,15.2-12.4,19c-8.2,3.9-16.1,3.4-23.6-1.8c-1.2-0.9-2.4-1.9-2.1-3.7
			C156.4,574.8,156.3,568.5,157.1,561.9z"/>
		<path fill="#F4F4F4" d="M162.2,579.4c7.1,7.4,17.3,8.8,26.4,3.8c8-4.5,11.8-13.1,9.5-22c2.7-1.9,3.3,0.8,3.9,2.1
			c1.6,3.7,0.9,7.5-0.4,11.1c-5.5,15.5-25.5,21-38.1,10.4C160.6,582.4,160.4,581.8,162.2,579.4z"/>
		<path fill="#242526" d="M291.3,506.2c3.7-4.3,9.4-4.5,14-7c0.3,0,0.6,0,1,0c3.7,4.3,7.3,8.7,11,13c1.7,3,3.3,6,5,9
			c-0.9,0.3-1.3,2.3-2.7,0.7C311.9,513.5,301.6,509.8,291.3,506.2z"/>
		<path fill="#F2EB8B" d="M72.3,603.2c-4.3,0-8.6,0-13.3,0c0.5-2.2,2.3-2.4,3.7-3c8.4-3.6,16.8-7.1,25-10.8c2.2-1,4.6-2.1,5.7-4.5
			c1.6,2.6,5.2,2,7.1,4.2c-1.2,3.7-4.5,4.7-7.6,5.8C85.9,597.4,79.6,601.4,72.3,603.2z"/>
		<path fill="#F3EB98" d="M101.3,603.2c-5.7,0-11.4,0-17,0c-0.4-1.4,0.4-2.3,1.4-2.8c6-3.5,12.5-6.1,19-8.5c0.9-0.3,2-0.2,2.9,0.2
			c3.1,0.6,6.1,1.6,9,3C112.4,599.4,106.4,600.4,101.3,603.2z"/>
		<path fill="#F4EC93" d="M107.6,592.1c-8,3.2-16.4,5.7-23.4,11.1c-4,0-8,0-12,0c6.2-4.3,13.4-6.6,20.3-9.5c2.9-1.2,5.4-3,8-4.7
			C102.9,590.1,105.3,591.1,107.6,592.1z"/>
		<path fill="#F4EDA5" d="M101.3,603.2c4.2-4.3,10.1-5.7,15.3-8.1c3.9,1.4,8.2,1.1,12,3c-2.3,3.2-6.4,3.2-9.4,5.2
			c-0.6,0-1.2,0.1-1.8,0.1C112.1,603.3,106.7,603.3,101.3,603.2z"/>
		<path fill="#F4EEB0" d="M119.3,603.3c2.2-3.4,6-3.8,9.4-5.2c8.1,1.4,16.1,2.9,24.2,4.3c0,0.3-0.1,0.6-0.1,0.9
			C141.6,603.3,130.4,603.3,119.3,603.3z"/>
		<path fill="#474747" d="M329.2,462.3c-3.5,2-7.4,0.5-11,0.9c1.1-1.3,2.7-0.8,4.1-1C324.6,462.2,326.9,462.3,329.2,462.3z"/>
		<path fill="#111427" d="M499.3,456.2c2.7,0.4,5.5-1,8,1C504.6,456.8,501.7,458.2,499.3,456.2z"/>
		<path fill="#979697" d="M705.4,478.1c-0.3,0.3-0.7,0.7-1,1c-1.4-0.4-2.8-0.8-4.7-1.3C702.1,477,703.8,476.9,705.4,478.1z"/>
		<path fill="#534B35" d="M124.4,621.2c1.6,0,3.2,0.1,4.8,0.1c0.3,0.1,0.4,0.3,0.4,0.5c-0.1,0.2-0.2,0.3-0.2,0.3
			c-0.3,0.3-0.7,0.6-1,0.9c-1.4-0.4-2.8-0.8-4.1-1.2C124.2,621.6,124.3,621.4,124.4,621.2z"/>
		<path fill="#161827" d="M597.3,464.2c2,0.3,4.2-0.8,6,1C601.3,464.9,599,466.1,597.3,464.2z"/>
		<path fill="#A5882F" d="M129.3,622.2c-0.1-0.3-0.1-0.5-0.1-0.8c0-0.3,0-0.7,0-1c1.1,0.4,2.3,0.8,3.4,1.2c0,0.2-0.1,0.4-0.1,0.6
			C131.4,622.2,130.4,622.2,129.3,622.2z"/>
		<path fill="#958352" d="M124.4,621.2c0.1,0.2,0,0.4-0.2,0.6c-1.2-0.6-2.8-0.1-3.7-1.5C121.8,620.3,123.3,619.8,124.4,621.2z"/>
		<path fill="#171C35" d="M262.3,468.3c5.9,2.8,11.9,5.7,17,10c-6,4.6-13.4,6.2-20.3,8.9c-38.6,14.7-77.2,29.2-115.8,43.7
			c-11,4.1-22,8.3-33.1,12.3c-1.5,0.5-3.3,2.2-4.8-0.2c-1-2,0.5-3.1,1.6-4.3c1.5-1.5-0.2-1.9-0.8-2.7c0.4-2.7,3.8-3.5,4.2-6.3
			c3.1-4.2,6.9-7.8,11-11c0.2,3.4,2,3,4.4,2c21.2-7.9,42.3-15.9,63.4-23.8c21.8-8.2,43.5-16.5,65.3-24.6
			C257.1,471.3,259.8,470.1,262.3,468.3z"/>
		<path fill="#141A39" d="M262.3,468.3c-0.3,3.3-3.2,3.7-5.4,4.5c-32.3,12.2-64.6,24.3-96.9,36.4c-11.6,4.4-23.3,8.7-34.9,13.2
			c-1.9,0.8-3.8,1.1-5.9,0.6c-0.4-1.9,2.2-2.5,1.9-4.3c4.9-4.8,10.1-9.2,16-12.7c7.9-1.4,15.1-5.1,22.5-7.9
			c25.2-9.4,50.5-18.7,75.6-28.5c1.6-0.6,3.6-0.9,4.4-2.8c4.1-0.4,8.1-1.3,12.2-1.6c2.1-0.1,4.3-0.7,6.2,0.9
			C259.2,467.5,260.7,468.1,262.3,468.3z"/>
		<path fill="#11193B" d="M239.3,468.2c-2.2,3.5-6.2,3.6-9.4,4.9c-29.2,11.2-58.5,22.2-87.8,33.2c-1.7,0.6-3.4,1.7-4.9-0.3
			c12.3-9.2,25.7-16.2,39.9-21.9c15.7-6.1,31.8-10.9,48.3-14.5C229.9,468.7,234.4,466.4,239.3,468.2z"/>
		<path fill="#EEE563" d="M91.2,564.2c-6.3,0.3-11.5,4-17.1,6.2c-6.8,2.6-13.3,5.9-19.9,8.9c-1.3,0.6-2.7,1.6-3.9-0.1
			c8-7.3,16.3-14.4,25-21c6.3-1,11.6-4.7,17.5-6.5c1.6-0.5,3.9-2.6,4.7,1c-0.8,3.2-4,5.1-4.2,8.6C92.6,562.2,91.9,563.2,91.2,564.2z
			"/>
		<path fill="#ECE258" d="M97.4,552.6c-0.7-1.5-1.8-1-2.9-0.5c-4.7,2-9.3,4-14,6c-1.8,0.7-3.6,2.1-5.3,0c7-6.5,14.9-11.7,23-16.8
			c1.7-1,3.3-2.1,4.9-3.2c1.3-0.2,1.9-1.7,3.3-1.5c1.1-0.5,2.3-0.9,4.6-1.9c-2.4,3.4-4.1,5.8-5.9,8.3
			C101.8,545.6,100.3,549.7,97.4,552.6z"/>
		<path fill="#171C35" d="M239.3,468.2c-11.2,0.5-21.7,4.2-32.3,7c-10,2.7-19.9,5.9-29.9,8.9c16.2-7.8,33.4-12.2,50.8-15.8
			c7.3-1.5,14.6-3,22.1-3.2c1.7-0.8,3.7,0.1,5.4-0.7c1.6-0.1,3.2-0.2,4.8-0.3c0.7,2-2,0.8-1.9,2.1
			C251.8,466.2,245.4,466,239.3,468.2z"/>
		<path fill="#2B2B2A" d="M293.2,463.4c-8.6,1.4-17.3,1.5-25.9,0C276,463,284.6,462.5,293.2,463.4z"/>
		<path fill="#2D2B22" d="M106.4,536.6c-0.9,0.9-1.9,1.7-3.3,1.5c1.9-3.2,4.3-5.9,7.1-8.3C110.7,533,106.8,533.8,106.4,536.6z"/>
		<path fill="#4A4A4A" d="M255.3,464.4c-1.6,1.3-3.5,1-5.4,0.7C251.6,464.1,253.5,464.2,255.3,464.4z"/>
		<path fill="#E6E5E5" d="M177.8,548c10.7,0.1,19.3,8.3,19,18.2c-0.2,9.9-8.8,17.9-19.1,17.9c-10.4,0-19.4-8.4-19.4-18.2
			C158.4,555.9,167.1,547.9,177.8,548z"/>
		<path fill="#040505" d="M185.3,563.4c0.6,0,1.4-0.3,1.7,0.5c1.1,3.5-1.1,8.6-4.6,10.7c-3.9,2.4-7.6,1.8-11-1.1
			c-3.4-2.9-4.3-9-1.9-12.8c2.3-3.7,5.4-5.8,10-4.6c0.3,0.1,0.5,0.7,0.7,1.1C178.9,563.1,179.5,563.8,185.3,563.4z"/>
		<path fill="#F6F5F5" d="M185.3,563.4c-2.2,2.8-4.7,2.4-6.6-0.1c-1.8-2.3-1.4-4.6,1.5-6.1C185.7,556.1,187.1,557.8,185.3,563.4z"/>
	</g>
</g>
</svg>
